<svg xmlns="http://www.w3.org/2000/svg" width="68.285" height="45.552" viewBox="0 0 68.285 45.552">
  <g id="그룹_8" data-name="그룹 8" transform="translate(0 0)">
    <g id="그룹_2" data-name="그룹 2" transform="translate(27.047 0)">
      <path id="패스_17" data-name="패스 17" d="M1259.809,643.643h-.011a1.11,1.11,0,0,1-1.007-.667l-1.749-4.011a1.111,1.111,0,0,1,.009-.908l7.973-17.337a1.111,1.111,0,0,1,1.009-.647h3.594a1.111,1.111,0,0,1,1.009,1.575L1260.818,643A1.111,1.111,0,0,1,1259.809,643.643Zm-.533-5.11.559,1.282,8.057-17.521h-1.149Z" transform="translate(-1256.949 -620.073)" fill="#040405"/>
    </g>
    <g id="그룹_3" data-name="그룹 3" transform="translate(7.919 0)">
      <path id="패스_18" data-name="패스 18" d="M827.477,643.643h-.011a1.11,1.11,0,0,1-1.007-.667l-1.749-4.011a1.111,1.111,0,0,1,.009-.908l7.973-17.337a1.111,1.111,0,0,1,1.009-.647h3.594a1.111,1.111,0,0,1,1.009,1.575L828.486,643A1.111,1.111,0,0,1,827.477,643.643Zm-.532-5.11.559,1.282,8.057-17.521h-1.149Z" transform="translate(-824.617 -620.073)" fill="#040405"/>
    </g>
    <path id="패스_19" data-name="패스 19" d="M1094.712,639.627a1.111,1.111,0,0,1-1.019-.667l-7.561-17.337a1.111,1.111,0,0,1,2.036-.888l7.561,17.338a1.111,1.111,0,0,1-1.018,1.555Z" transform="translate(-1066.554 -620.067)" fill="#040405"/>
    <path id="패스_20" data-name="패스 20" d="M1096.894,1116.266a1.11,1.11,0,0,1-1.018-.667l-9.743-22.339a1.111,1.111,0,1,1,2.036-.888l9.743,22.339a1.112,1.112,0,0,1-1.018,1.555Z" transform="translate(-1066.554 -1070.839)" fill="#040405"/>
    <path id="패스_21" data-name="패스 21" d="M656.477,1116.266a1.111,1.111,0,0,1-1.019-.667l-9.743-22.339a1.111,1.111,0,0,1,2.036-.888l9.743,22.339a1.111,1.111,0,0,1-1.017,1.555Z" transform="translate(-645.622 -1070.838)" fill="#040405"/>
    <path id="패스_22" data-name="패스 22" d="M866.942,1116.266a1.111,1.111,0,0,1-1.018-1.555l9.743-22.339a1.111,1.111,0,1,1,2.036.888l-9.743,22.339A1.111,1.111,0,0,1,866.942,1116.266Z" transform="translate(-856.089 -1070.838)" fill="#040405"/>
    <path id="패스_23" data-name="패스 23" d="M1307.358,686.592a1.111,1.111,0,0,1-1.017-1.555l18.418-42.229a1.111,1.111,0,1,1,2.036.888l-18.417,42.229A1.111,1.111,0,0,1,1307.358,686.592Z" transform="translate(-1277.019 -641.165)" fill="#040405"/>
    <path id="패스_24" data-name="패스 24" d="M1742.054,686.592a1.111,1.111,0,0,1-1.019-.667L1722.618,643.7a1.111,1.111,0,1,1,2.036-.888l18.417,42.229a1.111,1.111,0,0,1-1.017,1.555Z" transform="translate(-1674.879 -641.165)" fill="#040405"/>
    <path id="패스_25" data-name="패스 25" d="M1451.535,1019.958a1.111,1.111,0,0,1-1.017-1.555l11.744-26.927a1.111,1.111,0,0,1,2.036.888l-11.744,26.927A1.111,1.111,0,0,1,1451.535,1019.958Z" transform="translate(-1414.817 -974.406)" fill="#040405"/>
    <path id="패스_26" data-name="패스 26" d="M1887.716,1384.529a1.111,1.111,0,0,1-1.019-.667l-4.338-9.948a1.111,1.111,0,1,1,2.036-.888l4.338,9.947a1.111,1.111,0,0,1-1.017,1.555Z" transform="translate(-1827.553 -1339.076)" fill="#040405"/>
    <path id="패스_27" data-name="패스 27" d="M1719.875,999.686a1.111,1.111,0,0,1-1.019-.667l-2.9-6.656a1.111,1.111,0,0,1,2.036-.888l2.9,6.656a1.111,1.111,0,0,1-1.017,1.555Z" transform="translate(-1668.51 -974.405)" fill="#040405"/>
    <path id="패스_28" data-name="패스 28" d="M1981.44,1598.87a1.111,1.111,0,0,1,0-2.221l7.012-.026h0a1.111,1.111,0,0,1,0,2.222l-7.012.025Z" transform="translate(-1921.277 -1553.417)" fill="#040405"/>
  </g>
</svg>
